# This file uses centimeters as units for non-parametric coordinates.

mtllib torus.mtl
g default
v 0.250000 0.000000 -0.433013
v -0.250000 0.000000 -0.433013
v -0.500000 0.000000 -0.000000
v -0.250000 0.000000 0.433013
v 0.250000 0.000000 0.433013
v 0.500000 0.000000 0.000000
v 0.375000 0.433013 -0.649519
v -0.375000 0.433013 -0.649519
v -0.750000 0.433013 -0.000000
v -0.375000 0.433013 0.649519
v 0.375000 0.433013 0.649519
v 0.750000 0.433013 0.000000
v 0.625000 0.433013 -1.082532
v -0.625000 0.433013 -1.082532
v -1.250000 0.433013 -0.000000
v -0.625000 0.433013 1.082532
v 0.625000 0.433013 1.082532
v 1.250000 0.433013 0.000000
v 0.750000 -0.000000 -1.299038
v -0.750000 -0.000000 -1.299038
v -1.500000 -0.000000 -0.000000
v -0.750000 -0.000000 1.299038
v 0.750000 -0.000000 1.299038
v 1.500000 -0.000000 0.000000
v 0.625000 -0.433013 -1.082532
v -0.625000 -0.433013 -1.082532
v -1.250000 -0.433013 -0.000000
v -0.625000 -0.433013 1.082532
v 0.625000 -0.433013 1.082532
v 1.250000 -0.433013 0.000000
v 0.375000 -0.433013 -0.649519
v -0.375000 -0.433013 -0.649519
v -0.750000 -0.433013 -0.000000
v -0.375000 -0.433013 0.649519
v 0.375000 -0.433013 0.649519
v 0.750000 -0.433013 0.000000
vt 0.000000 1.000000
vt 0.166667 1.000000
vt 0.333333 1.000000
vt 0.500000 1.000000
vt 0.666667 1.000000
vt 0.833333 1.000000
vt 1.000000 1.000000
vt 0.000000 0.833333
vt 0.166667 0.833333
vt 0.333333 0.833333
vt 0.500000 0.833333
vt 0.666667 0.833333
vt 0.833333 0.833333
vt 1.000000 0.833333
vt 0.000000 0.666667
vt 0.166667 0.666667
vt 0.333333 0.666667
vt 0.500000 0.666667
vt 0.666667 0.666667
vt 0.833333 0.666667
vt 1.000000 0.666667
vt 0.000000 0.500000
vt 0.166667 0.500000
vt 0.333333 0.500000
vt 0.500000 0.500000
vt 0.666667 0.500000
vt 0.833333 0.500000
vt 1.000000 0.500000
vt 0.000000 0.333333
vt 0.166667 0.333333
vt 0.333333 0.333333
vt 0.500000 0.333333
vt 0.666667 0.333333
vt 0.833333 0.333333
vt 1.000000 0.333333
vt 0.000000 0.166667
vt 0.166667 0.166667
vt 0.333333 0.166667
vt 0.500000 0.166667
vt 0.666667 0.166667
vt 0.833333 0.166667
vt 1.000000 0.166667
vt 0.000000 -0.000000
vt 0.166667 -0.000000
vt 0.333333 -0.000000
vt 0.500000 -0.000000
vt 0.666667 -0.000000
vt 0.833333 -0.000000
vt 1.000000 -0.000000
vn -0.000000 0.447214 0.894427
vn -0.000000 0.447214 0.894427
vn -0.000000 0.447214 0.894427
vn -0.000000 0.447214 0.894427
vn 0.774597 0.447214 0.447214
vn 0.774597 0.447214 0.447214
vn 0.774597 0.447214 0.447214
vn 0.774597 0.447214 0.447214
vn 0.774597 0.447214 -0.447213
vn 0.774597 0.447214 -0.447214
vn 0.774597 0.447214 -0.447213
vn 0.774597 0.447214 -0.447213
vn 0.000000 0.447214 -0.894427
vn 0.000000 0.447214 -0.894427
vn 0.000000 0.447214 -0.894427
vn 0.000000 0.447214 -0.894427
vn -0.774597 0.447214 -0.447214
vn -0.774597 0.447214 -0.447214
vn -0.774597 0.447214 -0.447214
vn -0.774597 0.447214 -0.447214
vn -0.774597 0.447214 0.447213
vn -0.774597 0.447214 0.447213
vn -0.774597 0.447214 0.447213
vn -0.774597 0.447214 0.447213
vn 0.000000 1.000000 -0.000000
vn 0.000000 1.000000 -0.000000
vn 0.000000 1.000000 -0.000000
vn 0.000000 1.000000 -0.000000
vn -0.000000 1.000000 0.000000
vn -0.000000 1.000000 -0.000000
vn -0.000000 1.000000 -0.000000
vn -0.000000 1.000000 -0.000000
vn -0.000000 1.000000 -0.000000
vn -0.000000 1.000000 -0.000000
vn -0.000000 1.000000 -0.000000
vn -0.000000 1.000000 0.000000
vn 0.000000 1.000000 0.000000
vn -0.000000 1.000000 0.000000
vn -0.000000 1.000000 0.000000
vn -0.000000 1.000000 0.000000
vn 0.000000 1.000000 0.000000
vn 0.000000 1.000000 0.000000
vn 0.000000 1.000000 0.000000
vn 0.000000 1.000000 0.000000
vn 0.000000 1.000000 -0.000000
vn 0.000000 1.000000 -0.000000
vn 0.000000 1.000000 -0.000000
vn 0.000000 1.000000 -0.000000
vn 0.000000 0.447214 -0.894427
vn 0.000000 0.447214 -0.894427
vn 0.000000 0.447214 -0.894427
vn 0.000000 0.447214 -0.894427
vn -0.774597 0.447213 -0.447214
vn -0.774597 0.447214 -0.447214
vn -0.774597 0.447214 -0.447214
vn -0.774597 0.447214 -0.447214
vn -0.774597 0.447214 0.447213
vn -0.774597 0.447214 0.447213
vn -0.774597 0.447214 0.447213
vn -0.774597 0.447214 0.447213
vn 0.000000 0.447214 0.894427
vn 0.000000 0.447214 0.894427
vn 0.000000 0.447214 0.894427
vn 0.000000 0.447214 0.894427
vn 0.774597 0.447213 0.447214
vn 0.774597 0.447213 0.447214
vn 0.774597 0.447213 0.447214
vn 0.774597 0.447214 0.447214
vn 0.774597 0.447214 -0.447213
vn 0.774597 0.447214 -0.447213
vn 0.774597 0.447214 -0.447213
vn 0.774597 0.447214 -0.447213
vn 0.000000 -0.447214 -0.894427
vn 0.000000 -0.447214 -0.894427
vn 0.000000 -0.447214 -0.894427
vn 0.000000 -0.447214 -0.894427
vn -0.774596 -0.447214 -0.447214
vn -0.774597 -0.447214 -0.447214
vn -0.774597 -0.447214 -0.447214
vn -0.774597 -0.447214 -0.447214
vn -0.774597 -0.447214 0.447213
vn -0.774597 -0.447214 0.447214
vn -0.774597 -0.447214 0.447213
vn -0.774597 -0.447213 0.447214
vn 0.000000 -0.447214 0.894427
vn 0.000000 -0.447214 0.894427
vn 0.000000 -0.447214 0.894427
vn 0.000000 -0.447214 0.894427
vn 0.774597 -0.447214 0.447214
vn 0.774597 -0.447214 0.447214
vn 0.774597 -0.447214 0.447214
vn 0.774597 -0.447214 0.447214
vn 0.774597 -0.447214 -0.447213
vn 0.774597 -0.447214 -0.447213
vn 0.774597 -0.447214 -0.447213
vn 0.774597 -0.447214 -0.447213
vn -0.000000 -1.000000 0.000000
vn -0.000000 -1.000000 0.000000
vn -0.000000 -1.000000 0.000000
vn -0.000000 -1.000000 0.000000
vn 0.000000 -1.000000 0.000000
vn 0.000000 -1.000000 0.000000
vn 0.000000 -1.000000 0.000000
vn 0.000000 -1.000000 0.000000
vn 0.000000 -1.000000 -0.000000
vn 0.000000 -1.000000 -0.000000
vn 0.000000 -1.000000 -0.000000
vn 0.000000 -1.000000 -0.000000
vn 0.000000 -1.000000 -0.000000
vn 0.000000 -1.000000 -0.000000
vn 0.000000 -1.000000 -0.000000
vn 0.000000 -1.000000 -0.000000
vn -0.000000 -1.000000 -0.000000
vn -0.000000 -1.000000 -0.000000
vn -0.000000 -1.000000 -0.000000
vn -0.000000 -1.000000 -0.000000
vn -0.000000 -1.000000 -0.000000
vn -0.000000 -1.000000 0.000000
vn -0.000000 -1.000000 -0.000000
vn -0.000000 -1.000000 0.000000
vn -0.000000 -0.447213 0.894427
vn -0.000000 -0.447213 0.894427
vn -0.000000 -0.447214 0.894427
vn -0.000000 -0.447213 0.894427
vn 0.774597 -0.447213 0.447214
vn 0.774597 -0.447214 0.447214
vn 0.774597 -0.447213 0.447214
vn 0.774597 -0.447213 0.447214
vn 0.774597 -0.447213 -0.447214
vn 0.774597 -0.447213 -0.447214
vn 0.774597 -0.447213 -0.447214
vn 0.774597 -0.447213 -0.447214
vn 0.000000 -0.447213 -0.894427
vn 0.000000 -0.447213 -0.894427
vn 0.000000 -0.447213 -0.894427
vn 0.000000 -0.447214 -0.894427
vn -0.774597 -0.447213 -0.447214
vn -0.774597 -0.447213 -0.447214
vn -0.774597 -0.447213 -0.447214
vn -0.774597 -0.447213 -0.447214
vn -0.774597 -0.447214 0.447214
vn -0.774597 -0.447214 0.447214
vn -0.774597 -0.447214 0.447214
vn -0.774597 -0.447214 0.447214
g pTorus1
usemtl initialShadingGroup
f 2/2/1 1/1/2 8/9/3
f 8/9/3 1/1/2 7/8/4
f 3/3/5 2/2/6 9/10/7
f 9/10/7 2/2/6 8/9/8
f 4/4/9 3/3/10 10/11/11
f 10/11/11 3/3/10 9/10/12
f 5/5/13 4/4/14 11/12/15
f 11/12/15 4/4/14 10/11/16
f 6/6/17 5/5/18 12/13/19
f 12/13/19 5/5/18 11/12/20
f 1/7/21 6/6/22 7/14/23
f 7/14/23 6/6/22 12/13/24
f 8/9/25 7/8/26 14/16/27
f 14/16/27 7/8/26 13/15/28
f 9/10/29 8/9/30 15/17/31
f 15/17/31 8/9/30 14/16/32
f 10/11/33 9/10/34 16/18/35
f 16/18/35 9/10/34 15/17/36
f 11/12/37 10/11/38 17/19/39
f 17/19/39 10/11/38 16/18/40
f 12/13/41 11/12/42 18/20/43
f 18/20/43 11/12/42 17/19/44
f 7/14/45 12/13/46 13/21/47
f 13/21/47 12/13/46 18/20/48
f 14/16/49 13/15/50 20/23/51
f 20/23/51 13/15/50 19/22/52
f 15/17/53 14/16/54 21/24/55
f 21/24/55 14/16/54 20/23/56
f 16/18/57 15/17/58 22/25/59
f 22/25/59 15/17/58 21/24/60
f 17/19/61 16/18/62 23/26/63
f 23/26/63 16/18/62 22/25/64
f 18/20/65 17/19/66 24/27/67
f 24/27/67 17/19/66 23/26/68
f 13/21/69 18/20/70 19/28/71
f 19/28/71 18/20/70 24/27/72
f 20/23/73 19/22/74 26/30/75
f 26/30/75 19/22/74 25/29/76
f 21/24/77 20/23/78 27/31/79
f 27/31/79 20/23/78 26/30/80
f 22/25/81 21/24/82 28/32/83
f 28/32/83 21/24/82 27/31/84
f 23/26/85 22/25/86 29/33/87
f 29/33/87 22/25/86 28/32/88
f 24/27/89 23/26/90 30/34/91
f 30/34/91 23/26/90 29/33/92
f 19/28/93 24/27/94 25/35/95
f 25/35/95 24/27/94 30/34/96
f 26/30/97 25/29/98 32/37/99
f 32/37/99 25/29/98 31/36/100
f 27/31/101 26/30/102 33/38/103
f 33/38/103 26/30/102 32/37/104
f 28/32/105 27/31/106 34/39/107
f 34/39/107 27/31/106 33/38/108
f 29/33/109 28/32/110 35/40/111
f 35/40/111 28/32/110 34/39/112
f 30/34/113 29/33/114 36/41/115
f 36/41/115 29/33/114 35/40/116
f 25/35/117 30/34/118 31/42/119
f 31/42/119 30/34/118 36/41/120
f 32/37/121 31/36/122 2/44/123
f 2/44/123 31/36/122 1/43/124
f 33/38/125 32/37/126 3/45/127
f 3/45/127 32/37/126 2/44/128
f 34/39/129 33/38/130 4/46/131
f 4/46/131 33/38/130 3/45/132
f 35/40/133 34/39/134 5/47/135
f 5/47/135 34/39/134 4/46/136
f 36/41/137 35/40/138 6/48/139
f 6/48/139 35/40/138 5/47/140
f 31/42/141 36/41/142 1/49/143
f 1/49/143 36/41/142 6/48/144
