# This file uses centimeters as units for non-parametric coordinates.

mtllib Skybox.mtl
g default
v -2.546296 -2.546296 2.546296
v 2.546296 -2.546296 2.546296
v -2.546296 2.546296 2.546296
v 2.546296 2.546296 2.546296
v -2.546296 2.546296 -2.546296
v 2.546296 2.546296 -2.546296
v -2.546296 -2.546296 -2.546296
v 2.546296 -2.546296 -2.546296
v 3.216146 0.000000 3.216146
v 0.000000 3.216146 3.216146
v -3.216146 3.216146 0.000000
v 3.216146 3.216146 0.000000
v 0.000000 3.216146 -3.216146
v -3.216146 0.000000 -3.216146
v 3.216146 0.000000 -3.216146
v 0.000000 -3.216146 -3.216146
v -3.216146 -3.216146 0.000000
v 3.216146 -3.216146 0.000000
v 0.000000 -3.216146 3.216146
v -3.216146 0.000000 3.216146
v 0.000000 0.000000 4.392362
v 0.000000 4.392362 -0.000000
v 0.000000 -0.000000 -4.392362
v 0.000000 -4.392362 0.000000
v 4.392362 0.000000 -0.000000
v -4.392362 0.000000 0.000000
v 0.000000 -1.753472 4.097222
v -1.753472 0.000000 4.097222
v 1.510417 -2.994792 2.994792
v 2.994792 -1.510417 2.994792
v 1.753472 0.000000 4.097222
v 0.000000 1.753472 4.097222
v 2.994792 1.510417 2.994792
v 1.510417 2.994792 2.994792
v -2.994792 1.510417 2.994792
v -1.510417 2.994792 2.994792
v -2.994792 2.994792 1.510417
v 0.000000 4.097222 1.753472
v -1.753472 4.097222 0.000000
v 2.994792 2.994792 1.510417
v 1.753472 4.097222 0.000000
v 0.000000 4.097222 -1.753472
v 2.994792 2.994792 -1.510417
v 1.510417 2.994792 -2.994792
v -2.994792 2.994792 -1.510417
v -1.510417 2.994792 -2.994792
v -2.994792 1.510417 -2.994792
v 0.000000 1.753472 -4.097222
v -1.753472 0.000000 -4.097222
v 2.994792 1.510417 -2.994792
v 1.753472 0.000000 -4.097222
v 0.000000 -1.753472 -4.097222
v 2.994792 -1.510417 -2.994792
v 1.510417 -2.994792 -2.994792
v -2.994792 -1.510417 -2.994792
v -1.510417 -2.994792 -2.994792
v -2.994792 -2.994792 -1.510417
v 0.000000 -4.097222 -1.753472
v -1.753472 -4.097222 0.000000
v 2.994792 -2.994792 -1.510417
v 1.753472 -4.097222 0.000000
v 0.000000 -4.097222 1.753472
v 2.994792 -2.994792 1.510417
v -2.994792 -2.994792 1.510417
v 4.097222 -1.753472 0.000000
v 4.097222 0.000000 1.753472
v 4.097222 0.000000 -1.753472
v 4.097222 1.753472 0.000000
v -4.097222 -1.753472 0.000000
v -4.097222 0.000000 -1.753472
v -4.097222 0.000000 1.753472
v -4.097222 1.753472 0.000000
v -1.510417 -2.994792 2.994792
v -2.994792 -1.510417 2.994792
v -1.631944 -1.631944 3.819444
v 1.631944 -1.631944 3.819444
v 1.631944 1.631944 3.819444
v -1.631944 1.631944 3.819444
v -1.631944 3.819444 1.631944
v 1.631944 3.819444 1.631944
v 1.631944 3.819444 -1.631944
v -1.631944 3.819444 -1.631944
v -1.631944 1.631944 -3.819444
v 1.631944 1.631944 -3.819444
v 1.631944 -1.631944 -3.819444
v -1.631944 -1.631944 -3.819444
v -1.631944 -3.819444 -1.631944
v 1.631944 -3.819444 -1.631944
v 1.631944 -3.819444 1.631944
v -1.631944 -3.819444 1.631944
v 3.819444 -1.631944 1.631944
v 3.819444 -1.631944 -1.631944
v 3.819444 1.631944 -1.631944
v 3.819444 1.631944 1.631944
v -3.819444 -1.631944 -1.631944
v -3.819444 -1.631944 1.631944
v -3.819444 1.631944 1.631944
v -3.819444 1.631944 -1.631944
vt 0.039731 0.248300
vt 0.014886 0.299742
vt 0.079547 0.310407
vt 0.089074 0.252321
vt 0.000977 0.371793
vt 0.073536 0.374066
vt 0.137147 0.375401
vt 0.140442 0.315296
vt 0.146473 0.257067
vt 0.009695 0.446270
vt 0.076382 0.438780
vt 0.033266 0.503495
vt 0.084033 0.498800
vt 0.142225 0.494822
vt 0.138024 0.435735
vt 0.196576 0.434124
vt 0.196444 0.376096
vt 0.199254 0.490255
vt 0.249087 0.485558
vt 0.252526 0.434096
vt 0.254120 0.376670
vt 0.198680 0.318372
vt 0.203424 0.262415
vt 0.254527 0.319193
vt 0.253807 0.267903
vt 0.312132 0.314192
vt 0.305369 0.249038
vt 0.313035 0.377001
vt 0.375371 0.377319
vt 0.375624 0.311523
vt 0.375366 0.240012
vt 0.311003 0.439950
vt 0.303686 0.505309
vt 0.374458 0.514268
vt 0.374844 0.443020
vt 0.438532 0.440425
vt 0.437936 0.377639
vt 0.444198 0.504784
vt 0.495789 0.485543
vt 0.497114 0.436333
vt 0.498049 0.378082
vt 0.439689 0.314634
vt 0.446158 0.249603
vt 0.498956 0.319783
vt 0.500395 0.270326
vt 0.557553 0.316099
vt 0.552002 0.251867
vt 0.558034 0.378669
vt 0.620303 0.379300
vt 0.621073 0.314121
vt 0.621530 0.243308
vt 0.556004 0.441196
vt 0.549231 0.505518
vt 0.618883 0.514756
vt 0.619485 0.444362
vt 0.682524 0.442241
vt 0.682479 0.380144
vt 0.687715 0.505714
vt 0.738698 0.486822
vt 0.740377 0.438786
vt 0.742042 0.381296
vt 0.684763 0.317732
vt 0.691779 0.253293
vt 0.743617 0.323485
vt 0.745672 0.274458
vt 0.801828 0.320604
vt 0.796798 0.256903
vt 0.801559 0.382870
vt 0.864277 0.384912
vt 0.865425 0.319083
vt 0.864966 0.248858
vt 0.798096 0.444617
vt 0.789764 0.506956
vt 0.855905 0.518148
vt 0.860678 0.450028
vt 0.924490 0.452308
vt 0.929603 0.387696
vt 0.920918 0.514296
vt 0.969277 0.504009
vt 0.986938 0.456961
vt 0.999023 0.391538
vt 0.930699 0.321993
vt 0.932613 0.257449
vt 0.995145 0.324009
vt 0.982377 0.273355
vt 0.019450 0.557165
vt 0.084643 0.558165
vt 0.016696 0.627120
vt 0.087639 0.622559
vt 0.153921 0.616825
vt 0.147440 0.554086
vt 0.030794 0.694848
vt 0.095607 0.688119
vt 0.050767 0.743621
vt 0.102653 0.752761
vt 0.171083 0.751571
vt 0.161694 0.682128
vt 0.226282 0.672019
vt 0.219102 0.608475
vt 0.236070 0.734167
vt 0.281775 0.712405
vt 0.288087 0.663406
vt 0.286994 0.598435
vt 0.209246 0.546706
vt 0.271318 0.533804
vt 0.056155 0.014721
vt 0.038969 0.061253
vt 0.101059 0.066475
vt 0.105393 0.003774
vt 0.025645 0.125466
vt 0.094121 0.130281
vt 0.159474 0.135725
vt 0.166038 0.070474
vt 0.172253 0.000977
vt 0.027076 0.193396
vt 0.090731 0.193562
vt 0.152798 0.198169
vt 0.214735 0.206286
vt 0.225175 0.143818
vt 0.277698 0.220566
vt 0.295010 0.154451
vt 0.231603 0.078755
vt 0.238956 0.014515
vt 0.296056 0.086222
vt 0.287432 0.034615
vn 0.669585 0.321424 -0.669585
vn 0.329672 0.329672 -0.884666
vn 0.577350 0.577350 -0.577350
vn 0.321424 0.669585 -0.669585
vn 0.000000 0.341903 -0.939735
vn 0.000000 0.707107 -0.707107
vn 0.341903 0.000000 -0.939735
vn 0.000000 0.000000 -1.000000
vn 0.707107 0.000000 -0.707107
vn -0.321424 0.669585 -0.669585
vn -0.329672 0.329672 -0.884666
vn -0.577350 0.577350 -0.577350
vn -0.669585 0.321424 -0.669585
vn -0.341903 0.000000 -0.939735
vn -0.707107 0.000000 -0.707107
vn 0.000000 -0.341903 -0.939735
vn -0.329672 -0.329672 -0.884666
vn -0.669585 -0.321424 -0.669585
vn -0.321424 -0.669584 -0.669585
vn -0.577350 -0.577350 -0.577350
vn 0.000000 -0.707107 -0.707107
vn 0.669585 -0.321424 -0.669585
vn 0.329672 -0.329672 -0.884666
vn 0.321424 -0.669585 -0.669585
vn 0.577350 -0.577350 -0.577350
vn 0.669585 -0.669585 -0.321424
vn 0.329672 -0.884665 -0.329672
vn 0.000000 -0.939735 -0.341903
vn 0.341903 -0.939735 -0.000000
vn -0.000000 -1.000000 -0.000000
vn 0.707107 -0.707107 0.000000
vn -0.329672 -0.884666 -0.329672
vn -0.669584 -0.669585 -0.321424
vn -0.341903 -0.939735 -0.000000
vn -0.707107 -0.707107 -0.000000
vn -0.000000 -0.939735 0.341903
vn -0.329672 -0.884666 0.329672
vn -0.669585 -0.669585 0.321424
vn -0.321424 -0.669584 0.669585
vn -0.577350 -0.577350 0.577350
vn 0.000000 -0.707107 0.707107
vn 0.669585 -0.669585 0.321424
vn 0.329672 -0.884666 0.329672
vn 0.321424 -0.669585 0.669585
vn 0.577350 -0.577350 0.577350
vn 0.669585 -0.321424 0.669585
vn 0.329672 -0.329672 0.884666
vn 0.000000 -0.341903 0.939735
vn 0.341903 -0.000000 0.939735
vn 0.000000 -0.000000 1.000000
vn 0.707107 0.000000 0.707107
vn -0.329672 -0.329672 0.884666
vn -0.669585 -0.321424 0.669585
vn -0.341903 0.000000 0.939735
vn -0.707107 0.000000 0.707107
vn 0.000000 0.341903 0.939735
vn -0.329672 0.329672 0.884666
vn -0.669585 0.321424 0.669585
vn -0.321424 0.669584 0.669585
vn -0.577350 0.577350 0.577350
vn 0.000000 0.707107 0.707107
vn 0.669585 0.321424 0.669585
vn 0.329672 0.329672 0.884666
vn 0.321424 0.669585 0.669585
vn 0.577350 0.577350 0.577350
vn 0.669585 0.669585 0.321424
vn 0.329672 0.884665 0.329672
vn 0.000000 0.939735 0.341903
vn 0.341903 0.939735 0.000000
vn -0.000000 1.000000 0.000000
vn 0.707107 0.707107 -0.000000
vn -0.329672 0.884666 0.329672
vn -0.669584 0.669585 0.321424
vn -0.341903 0.939735 0.000000
vn -0.707107 0.707107 0.000000
vn -0.000000 0.939735 -0.341903
vn -0.329672 0.884666 -0.329672
vn -0.669585 0.669585 -0.321424
vn 0.669585 0.669585 -0.321424
vn 0.329672 0.884666 -0.329672
vn -0.884666 0.329672 -0.329672
vn -0.939735 0.341903 -0.000000
vn -0.939735 0.000000 -0.341903
vn -1.000000 0.000000 0.000000
vn -0.884666 0.329672 0.329672
vn -0.939735 0.000000 0.341903
vn -0.939735 -0.341903 0.000000
vn -0.884666 -0.329672 0.329672
vn -0.884666 -0.329672 -0.329672
vn 0.884666 0.329672 0.329672
vn 0.939735 0.341903 -0.000000
vn 0.939735 0.000000 0.341903
vn 1.000000 0.000000 0.000000
vn 0.884666 0.329672 -0.329672
vn 0.939735 0.000000 -0.341903
vn 0.939735 -0.341903 0.000000
vn 0.884666 -0.329672 -0.329672
vn 0.884666 -0.329672 0.329672
g pCube1
usemtl initialShadingGroup
f 74/4/1 75/3/2 1/1/3
f 1/1/3 75/3/2 73/2/4
f 75/3/2 27/6/5 73/2/4
f 73/2/4 27/6/5 19/5/6
f 28/8/7 21/7/8 75/3/2
f 75/3/2 21/7/8 27/6/5
f 20/9/9 28/8/7 74/4/1
f 74/4/1 28/8/7 75/3/2
f 19/5/6 27/6/5 29/10/10
f 29/10/10 27/6/5 76/11/11
f 29/10/10 76/11/11 2/12/12
f 2/12/12 76/11/11 30/13/13
f 76/11/11 31/15/14 30/13/13
f 30/13/13 31/15/14 9/14/15
f 27/6/5 21/7/8 76/11/11
f 76/11/11 21/7/8 31/15/14
f 32/17/16 77/16/17 21/7/8
f 21/7/8 77/16/17 31/15/14
f 77/16/17 33/18/18 31/15/14
f 31/15/14 33/18/18 9/14/15
f 34/20/19 4/19/20 77/16/17
f 77/16/17 4/19/20 33/18/18
f 10/21/21 34/20/19 32/17/16
f 32/17/16 34/20/19 77/16/17
f 20/9/9 35/23/22 28/8/7
f 28/8/7 35/23/22 78/22/23
f 28/8/7 78/22/23 21/7/8
f 21/7/8 78/22/23 32/17/16
f 78/22/23 36/24/24 32/17/16
f 32/17/16 36/24/24 10/21/21
f 35/23/22 3/25/25 78/22/23
f 78/22/23 3/25/25 36/24/24
f 37/27/26 79/26/27 3/25/25
f 3/25/25 79/26/27 36/24/24
f 79/26/27 38/28/28 36/24/24
f 36/24/24 38/28/28 10/21/21
f 39/30/29 22/29/30 79/26/27
f 79/26/27 22/29/30 38/28/28
f 11/31/31 39/30/29 37/27/26
f 37/27/26 39/30/29 79/26/27
f 10/21/21 38/28/28 34/20/19
f 34/20/19 38/28/28 80/32/32
f 34/20/19 80/32/32 4/19/20
f 4/19/20 80/32/32 40/33/33
f 80/32/32 41/35/34 40/33/33
f 40/33/33 41/35/34 12/34/35
f 38/28/28 22/29/30 80/32/32
f 80/32/32 22/29/30 41/35/34
f 42/37/36 81/36/37 22/29/30
f 22/29/30 81/36/37 41/35/34
f 81/36/37 43/38/38 41/35/34
f 41/35/34 43/38/38 12/34/35
f 44/40/39 6/39/40 81/36/37
f 81/36/37 6/39/40 43/38/38
f 13/41/41 44/40/39 42/37/36
f 42/37/36 44/40/39 81/36/37
f 11/31/31 45/43/42 39/30/29
f 39/30/29 45/43/42 82/42/43
f 39/30/29 82/42/43 22/29/30
f 22/29/30 82/42/43 42/37/36
f 82/42/43 46/44/44 42/37/36
f 42/37/36 46/44/44 13/41/41
f 45/43/42 5/45/45 82/42/43
f 82/42/43 5/45/45 46/44/44
f 47/47/46 83/46/47 5/45/45
f 5/45/45 83/46/47 46/44/44
f 83/46/47 48/48/48 46/44/44
f 46/44/44 48/48/48 13/41/41
f 49/50/49 23/49/50 83/46/47
f 83/46/47 23/49/50 48/48/48
f 14/51/51 49/50/49 47/47/46
f 47/47/46 49/50/49 83/46/47
f 13/41/41 48/48/48 44/40/39
f 44/40/39 48/48/48 84/52/52
f 44/40/39 84/52/52 6/39/40
f 6/39/40 84/52/52 50/53/53
f 84/52/52 51/55/54 50/53/53
f 50/53/53 51/55/54 15/54/55
f 48/48/48 23/49/50 84/52/52
f 84/52/52 23/49/50 51/55/54
f 52/57/56 85/56/57 23/49/50
f 23/49/50 85/56/57 51/55/54
f 85/56/57 53/58/58 51/55/54
f 51/55/54 53/58/58 15/54/55
f 54/60/59 8/59/60 85/56/57
f 85/56/57 8/59/60 53/58/58
f 16/61/61 54/60/59 52/57/56
f 52/57/56 54/60/59 85/56/57
f 14/51/51 55/63/62 49/50/49
f 49/50/49 55/63/62 86/62/63
f 49/50/49 86/62/63 23/49/50
f 23/49/50 86/62/63 52/57/56
f 86/62/63 56/64/64 52/57/56
f 52/57/56 56/64/64 16/61/61
f 55/63/62 7/65/65 86/62/63
f 86/62/63 7/65/65 56/64/64
f 57/67/66 87/66/67 7/65/65
f 7/65/65 87/66/67 56/64/64
f 87/66/67 58/68/68 56/64/64
f 56/64/64 58/68/68 16/61/61
f 59/70/69 24/69/70 87/66/67
f 87/66/67 24/69/70 58/68/68
f 17/71/71 59/70/69 57/67/66
f 57/67/66 59/70/69 87/66/67
f 16/61/61 58/68/68 54/60/59
f 54/60/59 58/68/68 88/72/72
f 54/60/59 88/72/72 8/59/60
f 8/59/60 88/72/72 60/73/73
f 88/72/72 61/75/74 60/73/73
f 60/73/73 61/75/74 18/74/75
f 58/68/68 24/69/70 88/72/72
f 88/72/72 24/69/70 61/75/74
f 62/77/76 89/76/77 24/69/70
f 24/69/70 89/76/77 61/75/74
f 89/76/77 63/78/78 61/75/74
f 61/75/74 63/78/78 18/74/75
f 29/80/10 2/79/12 89/76/77
f 89/76/77 2/79/12 63/78/78
f 19/81/6 29/80/10 62/77/76
f 62/77/76 29/80/10 89/76/77
f 17/71/71 64/83/79 59/70/69
f 59/70/69 64/83/79 90/82/80
f 59/70/69 90/82/80 24/69/70
f 24/69/70 90/82/80 62/77/76
f 90/82/80 73/84/4 62/77/76
f 62/77/76 73/84/4 19/81/6
f 64/83/79 1/85/3 90/82/80
f 90/82/80 1/85/3 73/84/4
f 30/13/13 91/87/81 2/12/12
f 2/12/12 91/87/81 63/86/78
f 91/87/81 65/89/82 63/86/78
f 63/86/78 65/89/82 18/88/75
f 66/91/83 25/90/84 91/87/81
f 91/87/81 25/90/84 65/89/82
f 9/14/15 66/91/83 30/13/13
f 30/13/13 66/91/83 91/87/81
f 18/88/75 65/89/82 60/92/73
f 60/92/73 65/89/82 92/93/85
f 60/92/73 92/93/85 8/94/60
f 8/94/60 92/93/85 53/95/58
f 92/93/85 67/97/86 53/95/58
f 53/95/58 67/97/86 15/96/55
f 65/89/82 25/90/84 92/93/85
f 92/93/85 25/90/84 67/97/86
f 68/99/87 93/98/88 25/90/84
f 25/90/84 93/98/88 67/97/86
f 93/98/88 50/100/53 67/97/86
f 67/97/86 50/100/53 15/96/55
f 43/102/38 6/101/40 93/98/88
f 93/98/88 6/101/40 50/100/53
f 12/103/35 43/102/38 68/99/87
f 68/99/87 43/102/38 93/98/88
f 9/14/15 33/18/18 66/91/83
f 66/91/83 33/18/18 94/104/89
f 66/91/83 94/104/89 25/90/84
f 25/90/84 94/104/89 68/99/87
f 94/104/89 40/105/33 68/99/87
f 68/99/87 40/105/33 12/103/35
f 33/18/18 4/19/20 94/104/89
f 94/104/89 4/19/20 40/105/33
f 55/109/62 95/108/90 7/106/65
f 7/106/65 95/108/90 57/107/66
f 95/108/90 69/111/91 57/107/66
f 57/107/66 69/111/91 17/110/71
f 70/113/92 26/112/93 95/108/90
f 95/108/90 26/112/93 69/111/91
f 14/114/51 70/113/92 55/109/62
f 55/109/62 70/113/92 95/108/90
f 17/110/71 69/111/91 64/115/79
f 64/115/79 69/111/91 96/116/94
f 64/115/79 96/116/94 1/1/3
f 1/1/3 96/116/94 74/4/1
f 96/116/94 71/117/95 74/4/1
f 74/4/1 71/117/95 20/9/9
f 69/111/91 26/112/93 96/116/94
f 96/116/94 26/112/93 71/117/95
f 72/119/96 97/118/97 26/112/93
f 26/112/93 97/118/97 71/117/95
f 97/118/97 35/23/22 71/117/95
f 71/117/95 35/23/22 20/9/9
f 37/120/26 3/25/25 97/118/97
f 97/118/97 3/25/25 35/23/22
f 11/121/31 37/120/26 72/119/96
f 72/119/96 37/120/26 97/118/97
f 14/114/51 47/123/46 70/113/92
f 70/113/92 47/123/46 98/122/98
f 70/113/92 98/122/98 26/112/93
f 26/112/93 98/122/98 72/119/96
f 98/122/98 45/124/42 72/119/96
f 72/119/96 45/124/42 11/121/31
f 47/123/46 5/125/45 98/122/98
f 98/122/98 5/125/45 45/124/42
